# xmcd
#
# Track frame offsets:
#	150
#	12392
#	29988
#	51287
#	66074
#	75783
#	85094
#
# Disc length: 1265 seconds
#
# Revision: 0
# Processed by: cddbd v1.5.2PL0 Copyright (c) Steve Scherf et al.
# Submitted via: EasyCDDAExtractor 16.0.6.1
#
DISCID=4f04ef07
DTITLE=Μερκούρη Μελίνα - Σπάνιες ηχογραφήσεις-Μ. Μερκούρη
DYEAR=2010
DGENRE=Ποικίλη
TTITLE0=Ο Μακ με το μαχαίρι [Kurt Weil/Marc Blitzstein-Bertolt Brecht, απ. Π.Μ
TTITLE0=άτεση]
TTITLE1=Θα σημάνουν οι καμπάνες [Μ. Θεοδωράκης-Γ. Ρίτσος]
TTITLE2=Το τραγούδι της Μπάρμπαρα [Kurt Weil-Bertolt Brecht, απ. Π.Μάτεση]
TTITLE3=Το μέτωπο [Μ. Θεοδωράκης]
TTITLE4=Άννα, μην κλαις [Θ. Μικρούτσικος-Bertolt Brecht]
TTITLE5=Καϋμός [Μ. Θεοδωράκης-Δ. Χριστοδούλου]
TTITLE6=Μυρτιά [Μ. Θεοδωράκης-Ν. Γκάτσος]
EXTD=
EXTT0=
EXTT1=
EXTT2=
EXTT3=
EXTT4=
EXTT5=
EXTT6=
PLAYORDER=
